<svg xmlns="http://www.w3.org/2000/svg" width="17" height="17" fill="none"><g clip-path="url(#a)"><path fill="#60C5AB" d="M16.385 12.98h-13.5v-9.5a.5.5 0 0 0-.5-.5h-1a.5.5 0 0 0-.5.5v10.5a1 1 0 0 0 1 1h14.5a.5.5 0 0 0 .5-.5v-1a.5.5 0 0 0-.5-.5Zm-1-9h-3.69a.75.75 0 0 0-.53 1.28l1.013 1.012-2.293 2.294-2.293-2.293a1 1 0 0 0-1.414 0L4.031 8.419a.5.5 0 0 0 0 .707l.707.707a.5.5 0 0 0 .707 0l1.44-1.44 2.293 2.293a1 1 0 0 0 1.414 0l3-3L14.604 8.7a.75.75 0 0 0 1.28-.53v-3.69a.5.5 0 0 0-.5-.5Z"/></g><defs><clipPath id="a"><path fill="#fff" d="M.885.98h16v16h-16z"/></clipPath></defs></svg>