<svg xmlns="http://www.w3.org/2000/svg" width="20" height="20" fill="none"><g clip-path="url(#a)"><path fill="#2196F3" d="M11.507 10.002 1.464 19.673a1.709 1.709 0 0 1-.745-1.426V1.757A1.709 1.709 0 0 1 1.464.33L11.507 10Z"/><path fill="#4CAF50" d="m15.022 6.624-3.515 3.378L1.464.33c.038-.03.077-.057.118-.082A1.718 1.718 0 0 1 3.316.222l11.706 6.402Z"/><path fill="#F0BB1F" d="M19.28 10.002a1.736 1.736 0 0 1-.907 1.543l-3.351 1.835-3.515-3.378 3.515-3.378 3.35 1.834c.566.307.915.9.909 1.544Z"/><path fill="#F15A2B" d="M15.022 13.38 3.316 19.782a1.74 1.74 0 0 1-1.734-.027 1.32 1.32 0 0 1-.118-.082l10.043-9.671 3.515 3.378Z"/></g><defs><clipPath id="a"><path fill="#fff" d="M0 0h20v20H0z"/></clipPath></defs></svg>