<svg width="107" height="35" viewBox="0 0 107 35" fill="none" xmlns="http://www.w3.org/2000/svg">
<rect width="107" height="35" rx="17.5" fill="#080809"/>
<g clip-path="url(#clip0_1_400)">
<path d="M28.5074 17.0018L18.4639 26.673C17.9935 26.3516 17.7143 25.817 17.7192 25.2473V8.75626C17.7143 8.18663 17.9935 7.65199 18.4639 7.33057L28.5074 17.0018Z" fill="#2196F3"/>
<path d="M32.0217 13.6236L28.5074 17.0018L18.4639 7.33053C18.5017 7.3012 18.5411 7.27392 18.5819 7.2488C19.1127 6.92708 19.7757 6.9167 20.3164 7.22156L32.0217 13.6236Z" fill="#4CAF50"/>
<path d="M36.2807 17.0017C36.2873 17.6447 35.9379 18.2387 35.3727 18.5454L32.0218 20.3798L28.5074 17.0017L32.0218 13.6235L35.3727 15.4579C35.9379 15.7646 36.2873 16.3586 36.2807 17.0017Z" fill="#F0BB1F"/>
<path d="M32.0217 20.3798L20.3164 26.7819C19.7745 27.0821 19.114 27.0717 18.5819 26.7547C18.5411 26.7296 18.5017 26.7023 18.4639 26.6729L28.5074 17.0017L32.0217 20.3798Z" fill="#F15A2B"/>
</g>
<path d="M49.0384 11.627H46.1069V12.7622H47.6687C47.4599 13.3054 46.9504 13.6378 46.1737 13.6378C45.0378 13.6378 44.3363 12.9324 44.3363 11.9676C44.3363 10.9703 45.0713 10.2649 46.0568 10.2649C46.7166 10.2649 47.2427 10.5568 47.4849 10.9297L48.6208 10.2973C48.128 9.53514 47.1843 9 46.0651 9C44.3446 9 43 10.3135 43 11.9595C43 13.5892 44.3196 14.9027 46.157 14.9027C47.794 14.9027 49.0384 13.8486 49.0384 12.1135V11.627Z" fill="white"/>
<path d="M50.7104 13.5405V12.5351H52.7984V11.3027H50.7104V10.3622H53.0072V9.11351H49.3742V14.7892H53.049V13.5405H50.7104Z" fill="white"/>
<path d="M57.3107 9.11351H52.9677V10.3622H54.4711V14.7892H55.8074V10.3622H57.3107V9.11351Z" fill="white"/>
<path d="M59.1484 9.11351V14.7892H60.4847V9.11351H59.1484Z" fill="white"/>
<path d="M64.997 9.11351H60.654V10.3622H62.1574V14.7892H63.4937V10.3622H64.997V9.11351Z" fill="white"/>
<path d="M69.6242 14.9027C71.3029 14.9027 72.6643 13.6216 72.6643 11.9514C72.6643 10.2811 71.3029 9 69.6242 9C67.9455 9 66.5842 10.2811 66.5842 11.9514C66.5842 13.6216 67.9455 14.9027 69.6242 14.9027ZM69.6242 13.6378C68.6721 13.6378 67.9205 12.9649 67.9205 11.9514C67.9205 10.9378 68.6721 10.2649 69.6242 10.2649C70.5763 10.2649 71.328 10.9378 71.328 11.9514C71.328 12.9649 70.5763 13.6378 69.6242 13.6378Z" fill="white"/>
<path d="M76.2563 9.11351V12.1946L74.0013 9.11351H72.9991V14.7892H74.3354V11.7081L76.5904 14.7892H77.5926V9.11351H76.2563Z" fill="white"/>
<path d="M49.0384 21.2676V21.4865C49.0384 22.1946 48.7795 22.7919 48.2617 23.2784C47.7438 23.7595 47.0618 24 46.2155 24C45.3246 24 44.5896 23.7189 44.0106 23.1568C43.4315 22.5892 43.142 21.8946 43.142 21.073C43.142 20.2514 43.4287 19.5595 44.0022 18.9973C44.5757 18.4297 45.3023 18.1459 46.1821 18.1459C46.7166 18.1459 47.2065 18.2703 47.652 18.5189C48.103 18.7676 48.451 19.1 48.696 19.5162L48.3034 19.7432C48.1085 19.3865 47.819 19.1 47.4348 18.8838C47.0562 18.6676 46.6386 18.5595 46.1821 18.5595C45.4248 18.5595 44.8012 18.8027 44.3112 19.2892C43.8268 19.7703 43.5846 20.3649 43.5846 21.073C43.5846 21.7811 43.8296 22.3784 44.3196 22.8649C44.8096 23.3459 45.4415 23.5865 46.2155 23.5865C46.9003 23.5865 47.4543 23.4054 47.8775 23.0432C48.3006 22.6811 48.5373 22.2243 48.5874 21.673H46.1069V21.2676H49.0384Z" fill="white"/>
<path d="M54.9668 23.1486C54.3821 23.7162 53.6694 24 52.8287 24C51.9879 24 51.2752 23.7162 50.6906 23.1486C50.106 22.5757 49.8137 21.8838 49.8137 21.073C49.8137 20.2622 50.106 19.573 50.6906 19.0054C51.2752 18.4324 51.9879 18.1459 52.8287 18.1459C53.6694 18.1459 54.3821 18.4324 54.9668 19.0054C55.5514 19.573 55.8437 20.2622 55.8437 21.073C55.8437 21.8838 55.5514 22.5757 54.9668 23.1486ZM50.9996 22.8568C51.5007 23.3432 52.1104 23.5865 52.8287 23.5865C53.5469 23.5865 54.1538 23.3432 54.6494 22.8568C55.1505 22.3649 55.401 21.7703 55.401 21.073C55.401 20.3757 55.1505 19.7838 54.6494 19.2973C54.1538 18.8054 53.5469 18.5595 52.8287 18.5595C52.1104 18.5595 51.5007 18.8054 50.9996 19.2973C50.5041 19.7838 50.2563 20.3757 50.2563 21.073C50.2563 21.7703 50.5041 22.3649 50.9996 22.8568Z" fill="white"/>
<path d="M61.7852 23.1486C61.2006 23.7162 60.4879 24 59.6472 24C58.8064 24 58.0937 23.7162 57.5091 23.1486C56.9245 22.5757 56.6322 21.8838 56.6322 21.073C56.6322 20.2622 56.9245 19.573 57.5091 19.0054C58.0937 18.4324 58.8064 18.1459 59.6472 18.1459C60.4879 18.1459 61.2006 18.4324 61.7852 19.0054C62.3699 19.573 62.6622 20.2622 62.6622 21.073C62.6622 21.8838 62.3699 22.5757 61.7852 23.1486ZM57.8181 22.8568C58.3192 23.3432 58.9289 23.5865 59.6472 23.5865C60.3654 23.5865 60.9723 23.3432 61.4679 22.8568C61.969 22.3649 62.2195 21.7703 62.2195 21.073C62.2195 20.3757 61.969 19.7838 61.4679 19.2973C60.9723 18.8054 60.3654 18.5595 59.6472 18.5595C58.9289 18.5595 58.3192 18.8054 57.8181 19.2973C57.3226 19.7838 57.0748 20.3757 57.0748 21.073C57.0748 21.7703 57.3226 22.3649 57.8181 22.8568Z" fill="white"/>
<path d="M69.3471 21.2676V21.4865C69.3471 22.1946 69.0881 22.7919 68.5703 23.2784C68.0525 23.7595 67.3705 24 66.5241 24C65.6333 24 64.8983 23.7189 64.3192 23.1568C63.7402 22.5892 63.4507 21.8946 63.4507 21.073C63.4507 20.2514 63.7374 19.5595 64.3109 18.9973C64.8844 18.4297 65.611 18.1459 66.4907 18.1459C67.0252 18.1459 67.5152 18.2703 67.9606 18.5189C68.4116 18.7676 68.7596 19.1 69.0046 19.5162L68.6121 19.7432C68.4172 19.3865 68.1277 19.1 67.7435 18.8838C67.3649 18.6676 66.9473 18.5595 66.4907 18.5595C65.7335 18.5595 65.1099 18.8027 64.6199 19.2892C64.1355 19.7703 63.8933 20.3649 63.8933 21.073C63.8933 21.7811 64.1383 22.3784 64.6283 22.8649C65.1182 23.3459 65.7502 23.5865 66.5241 23.5865C67.209 23.5865 67.763 23.4054 68.1861 23.0432C68.6093 22.6811 68.8459 22.2243 68.8961 21.673H66.4156V21.2676H69.3471Z" fill="white"/>
<path d="M70.8991 23.5054H73.6552V23.9108H70.4564V18.2351H70.8991V23.5054Z" fill="white"/>
<path d="M75.0179 23.5054H77.941V23.9108H74.5752V18.2351H77.8993V18.6405H75.0179V20.8459H77.6905V21.2514H75.0179V23.5054Z" fill="white"/>
<path d="M83.2428 18.2351C83.7662 18.2351 84.2005 18.4027 84.5457 18.7378C84.8909 19.073 85.0635 19.4919 85.0635 19.9946C85.0635 20.4973 84.8909 20.9162 84.5457 21.2514C84.2005 21.5811 83.7662 21.7459 83.2428 21.7459H81.6977V23.9108H81.2551V18.2351H83.2428ZM83.2428 21.3405C83.6437 21.3405 83.9722 21.2135 84.2283 20.9595C84.49 20.7054 84.6209 20.3838 84.6209 19.9946C84.6209 19.6 84.49 19.2757 84.2283 19.0216C83.9722 18.7676 83.6437 18.6405 83.2428 18.6405H81.6977V21.3405H83.2428Z" fill="white"/>
<path d="M86.5995 23.5054H89.3556V23.9108H86.1569V18.2351H86.5995V23.5054Z" fill="white"/>
<path d="M94.3726 23.9108L93.8046 22.4676H90.8731L90.3052 23.9108H89.8375L92.1092 18.2351H92.5769L94.8403 23.9108H94.3726ZM91.0402 22.0622H93.6459L92.3431 18.7622L91.0402 22.0622Z" fill="white"/>
<path d="M99 18.2351L96.8703 21.5757V23.9108H96.4276V21.5757L94.2979 18.2351H94.799L96.6531 21.1622L98.4989 18.2351H99Z" fill="white"/>
<defs>
<clipPath id="clip0_1_400">
<rect width="20" height="20" fill="white" transform="translate(17 7)"/>
</clipPath>
</defs>
</svg>
