<svg xmlns="http://www.w3.org/2000/svg" width="24" height="24" fill="none"><g filter="url(#a)"><g clip-path="url(#b)"><rect width="16" height="16" x="4" fill="#000" rx="3"/><path fill="#fff" d="M17.656 0H6.344A2.347 2.347 0 0 0 4 2.344v11.312A2.346 2.346 0 0 0 6.344 16h11.312A2.346 2.346 0 0 0 20 13.656V2.344A2.346 2.346 0 0 0 17.656 0Zm1.407 13.656c0 .776-.631 1.406-1.407 1.406H6.344c-.776 0-1.407-.63-1.407-1.406V2.344c0-.776.631-1.406 1.407-1.406h11.312c.776 0 1.407.63 1.407 1.406v11.312Z"/><path fill="#fff" d="M17.156 1.906a.939.939 0 0 0 0 1.875.939.939 0 0 0 0-1.875ZM12 3.781A4.223 4.223 0 0 0 7.781 8 4.224 4.224 0 0 0 12 12.219 4.224 4.224 0 0 0 16.219 8 4.224 4.224 0 0 0 12 3.781Zm0 7.5A3.285 3.285 0 0 1 8.719 8 3.285 3.285 0 0 1 12 4.719 3.285 3.285 0 0 1 15.281 8 3.285 3.285 0 0 1 12 11.281Z"/></g></g><defs><clipPath id="b"><rect width="16" height="16" x="4" fill="#fff" rx="3"/></clipPath><filter id="a" width="24" height="24" x="0" y="0" color-interpolation-filters="sRGB" filterUnits="userSpaceOnUse"><feFlood flood-opacity="0" result="BackgroundImageFix"/><feColorMatrix in="SourceAlpha" result="hardAlpha" values="0 0 0 0 0 0 0 0 0 0 0 0 0 0 0 0 0 0 127 0"/><feOffset dy="4"/><feGaussianBlur stdDeviation="2"/><feComposite in2="hardAlpha" operator="out"/><feColorMatrix values="0 0 0 0 0 0 0 0 0 0 0 0 0 0 0 0 0 0 0.25 0"/><feBlend in2="BackgroundImageFix" result="effect1_dropShadow_1_390"/><feBlend in="SourceGraphic" in2="effect1_dropShadow_1_390" result="shape"/></filter></defs></svg>