<svg xmlns="http://www.w3.org/2000/svg" width="20" height="20" fill="none"><g clip-path="url(#a)"><path fill="#fff" d="M12.77 11.755h-.625l-.221-.214a5.123 5.123 0 0 0 1.243-3.348 5.146 5.146 0 1 0-5.146 5.145 5.123 5.123 0 0 0 3.349-1.242l.213.221v.626l3.959 3.95 1.18-1.18-3.951-3.958Zm-4.75 0a3.558 3.558 0 0 1-3.562-3.562A3.558 3.558 0 0 1 8.021 4.63a3.558 3.558 0 0 1 3.562 3.563 3.558 3.558 0 0 1-3.562 3.562Z"/></g><defs><clipPath id="a"><path fill="#fff" d="M.5.672h19v19H.5z"/></clipPath></defs></svg>