<svg xmlns="http://www.w3.org/2000/svg" width="15" height="17" fill="none"><g clip-path="url(#a)"><path fill="#F18200" d="M11.818 5.096v-1c0-2.205-1.88-4-4.19-4-2.31 0-4.19 1.795-4.19 4v1H.293v8.5c0 1.38 1.173 2.5 2.62 2.5h9.428c1.447 0 2.62-1.12 2.62-2.5v-8.5h-3.144Zm-6.285-1c0-1.103.94-2 2.095-2 1.155 0 2.095.897 2.095 2v1h-4.19v-1Zm5.238 3.75c-.434 0-.786-.336-.786-.75s.352-.75.786-.75c.434 0 .785.336.785.75s-.351.75-.785.75Zm-6.286 0c-.434 0-.786-.336-.786-.75s.352-.75.786-.75c.434 0 .786.336.786.75s-.352.75-.786.75Z"/></g><defs><clipPath id="a"><path fill="#fff" d="M.294.096h14.667v16H.294z"/></clipPath></defs></svg>