<svg xmlns="http://www.w3.org/2000/svg" width="17" height="17" fill="none"><path fill="#FC7D88" d="M16.756 1.097a.497.497 0 0 0-.382-.381C15.368.5 14.581.5 13.797.5c-3.226 0-5.16 1.725-6.603 4H3.937a1.5 1.5 0 0 0-1.34.828L1.054 8.415A.75.75 0 0 0 1.725 9.5h3.243l-.702.702a1 1 0 0 0 0 1.414l1.59 1.591a1 1 0 0 0 1.415 0l.702-.702v3.245a.75.75 0 0 0 1.084.672l3.085-1.544a1.497 1.497 0 0 0 .828-1.34v-3.263c2.268-1.447 4-3.388 4-6.597.003-.787.003-1.575-.214-2.581ZM12.973 5.75a1.25 1.25 0 1 1 0-2.5 1.25 1.25 0 0 1 0 2.5Z"/></svg>